<svg xmlns="http://www.w3.org/2000/svg" viewBox="74.98 34.18 374.18 374.18"><defs><mask id="m0" maskUnits="userSpaceOnUse" x="74.98299915542842" y="34.17915157813502" width="374.1775952285922" height="374.1775952285922"><rect x="74.98299915542842" y="34.17915157813502" width="374.1775952285922" height="374.1775952285922" fill="#fff"></rect><path d="M 255.53 178.81 L 167.67 331.00 L 366.15 331.00" fill="none" stroke="#000" stroke-width="44" stroke-linejoin="miter"></path><polygon points="366.15 361.00 414.15 331.00 366.15 301.00" fill="#000" stroke="#000" stroke-width="16" stroke-linejoin="miter"></polygon></mask><mask id="m1" maskUnits="userSpaceOnUse" x="74.98299915542842" y="34.17915157813502" width="374.1775952285922" height="374.1775952285922"><rect x="74.98299915542842" y="34.17915157813502" width="374.1775952285922" height="374.1775952285922" fill="#fff"></rect><path d="M 323.08 294.19 L 235.22 142.00 L 135.97 313.89" fill="none" stroke="#000" stroke-width="44" stroke-linejoin="miter"></path><polygon points="109.99 298.89 111.97 355.46 161.95 328.89" fill="#000" stroke="#000" stroke-width="16" stroke-linejoin="miter"></polygon></mask><mask id="m2" maskUnits="userSpaceOnUse" x="74.98299915542842" y="34.17915157813502" width="374.1775952285922" height="374.1775952285922"><rect x="74.98299915542842" y="34.17915157813502" width="374.1775952285922" height="374.1775952285922" fill="#fff"></rect><path d="M 189.39 295.00 L 365.12 295.00 L 265.88 123.11" fill="none" stroke="#000" stroke-width="44" stroke-linejoin="miter"></path><polygon points="291.86 108.11 241.88 81.54 239.89 138.11" fill="#000" stroke="#000" stroke-width="16" stroke-linejoin="miter"></polygon></mask></defs><g mask="url(#m0)"><path d="M 189.39 295.00 L 365.12 295.00 L 265.88 123.11" fill="none" stroke="#e2603a" stroke-width="28" stroke-linejoin="miter"></path><polygon points="291.86 108.11 241.88 81.54 239.89 138.11" fill="#e2603a"></polygon></g><g mask="url(#m1)"><path d="M 255.53 178.81 L 167.67 331.00 L 366.15 331.00" fill="none" stroke="#ba7758" stroke-width="28" stroke-linejoin="miter"></path><polygon points="366.15 361.00 414.15 331.00 366.15 301.00" fill="#ba7758"></polygon></g><g mask="url(#m2)"><path d="M 323.08 294.19 L 235.22 142.00 L 135.97 313.89" fill="none" stroke="#a6ac9b" stroke-width="28" stroke-linejoin="miter"></path><polygon points="109.99 298.89 111.97 355.46 161.95 328.89" fill="#a6ac9b"></polygon></g></svg>